PathFileType	4	(X/Y/Z)	1103211_Cal01.trc	
DataRate	CameraRate	NumFrames	NumMarkers	Units	OrigDataRate	OrigDataStartFrame	OrigNumFrames
128	128	7	46	mm	128	170	337
Frame#	Time    CLAV			RSHO			LSHO			C7			T10			RASI			LASI			RPSI			LPSI			LGTR			RGTR			LMFC			RMFC			LANK			RANK			LMMA			RMMA			LHEE			RHEE			LMT5			RMT5			LTOE			RTOE			RELB			RWRA			RWRB			RFIN			LELB			LWRB			LWRA			LFIN			RFM2			LFM2			LKNE			RKNE			RTP2			RTP3			RTA3			LTP2			LTP3			LBHD			RFHD			RBHD			LUPA			LFRA			RFRA
        X1	Y1	Z1	X3	Y3	Z3	X4	Y4	Z4	X5	Y5	Z5	X6	Y6	Z6	X8	Y8	Z8	X9	Y9	Z9	X10	Y10	Z10	X11	Y11	Z11	X12	Y12	Z12	X13	Y13	Z13	X16	Y16	Z16	X17	Y17	Z17	X22	Y22	Z22	X23	Y23	Z23	X24	Y24	Z24	X25	Y25	Z25	X26	Y26	Z26	X27	Y27	Z27	X28	Y28	Z28	X29	Y29	Z29	X30	Y30	Z30	X31	Y31	Z31	X32	Y32	Z32	X33	Y33	Z33	X34	Y34	Z34	X35	Y35	Z35	X36	Y36	Z36	X37	Y37	Z37	X38	Y38	Z38	X39	Y39	Z39	X44	Y44	Z44	X53	Y53	Z53	X58	Y58	Z58	X59	Y59	Z59	X61	Y61	Z61	X62	Y62	Z62	X65	Y65	Z65	X67	Y67	Z67	X68	Y68	Z68	X71	Y71	Z71	X72	Y72	Z72	X73	Y73	Z73	X74	Y74	Z74	X75	Y75	Z75	X77	Y77	Z77
169	0.56	189.00084	1375.21558	-47.86855	88.27281	1424.72546	89.08937	86.95343	1433.36707	-192.33437	49.3203	1429.39673	-46.74373	15.11517	1135.07068	-52.36046	179.86867	946.96429	60.6181	175.22749	953.36914	-166.71129	-0.81264	955.4682	-1.00354	-2.32905	954.39111	-99.08119	109.22687	869.13934	-217.81758	110.02574	857.99329	118.57397	64.06873	466.88284	-84.09856	66.68924	471.56302	-16.35164	57.4409	91.0749	-207.03835	55.9075	87.32175	108.48297	73.29076	98.7021	-121.34669	80.57632	92.84305	24.81909	-14.7315	59.86199	-159.31102	-15.923	62.98541	60.09406	168.41269	30.83893	-243.63313	165.75719	40.94692	157.62033	213.01466	65.03863	-176.05913	214.50169	65.29004	91.00716	61.67772	1297.3512	347.40863	91.82852	1312.06055	592.46619	58.15996	1247.00757	586.65253	55.5547	1300.32275	666.96356	43.04215	1301.48401	-436.15289	37.18658	1262.53015	-685.2511	69.30505	1324.18054	-679.53589	30.86136	1318.75452	-758.87897	177.42943	717.41022	117.21454	166.32111	719.05255	-218.13298	78.42828	485.27679	-209.46678	89.13283	478.95282	108.58565	55.34528	268.9285	125.469	54.69254	182.69168	114.32674	108.35863	232.85728	64.70882	65.88165	278.9729	-225.74471	62.46425	193.99701	-216.78548	73.75005	1608.36157	-128.48204	178.17943	1626.05811	38.65443	186.9958	1634.76917	-109.11327	63.06572	1393.93909	-292.83478	25.89716	1306.70129	-584.39429	45.32925	1294.07458	431.48145
170	0.56333	188.99318	1375.21448	-47.89787	88.22861	1424.73145	89.09552	86.91666	1433.37769	-192.35414	49.31712	1429.38489	-46.74077	15.07272	1135.0509	-52.34535	179.84724	946.96246	60.60271	175.16188	953.36719	-166.7274	-0.84847	955.42133	-0.98296	-2.38152	954.41254	-99.0631	109.13783	869.11371	-217.82854	110.01337	857.98914	118.54842	63.9294	466.888	-84.11198	65.62927	471.62512	-15.82832	57.45815	91.06241	-207.03752	55.90067	87.3083	108.50774	73.27904	98.70535	-121.34795	80.52249	92.87299	24.813	-14.7364	59.85586	-159.34273	-15.91782	62.94447	60.08905	168.37334	30.82691	-243.64519	165.75336	40.92776	157.63248	212.96385	64.9971	-176.05403	214.50084	65.28233	91.02477	61.64687	1297.28894	347.42252	91.83296	1312.04016	592.48547	58.19113	1246.98315	586.63666	55.57289	1300.31665	666.96985	43.04151	1301.44177	-436.15515	37.17619	1262.4679	-685.26038	69.30316	1324.14404	-679.53436	30.85909	1318.70654	-758.87158	177.41597	717.37274	117.18953	166.31036	719.07288	-218.17699	78.36946	485.241	-209.48723	89.08601	478.95889	108.57176	55.327	268.91232	125.43583	54.68834	182.66757	114.29787	108.31364	232.87294	64.73233	65.8645	278.96198	-225.74989	62.4619	193.9977	-216.78627	73.4796	1608.49951	-128.37334	178.07753	1625.99365	38.6481	187.0049	1634.76587	-109.10649	63.06679	1393.9137	-292.83112	25.9297	1306.66577	-584.41284	45.32529	1294.05872	431.47501
171	0.56667	188.9922	1375.22766	-47.83775	88.2132	1424.72095	89.09904	86.91069	1433.3678	-192.35536	49.31923	1429.38538	-46.74858	15.08138	1135.04089	-52.3322	179.84193	946.94824	60.4706	175.06728	953.37115	-166.83742	-0.87715	955.42816	-1.04353	-2.45092	954.43115	-99.10732	109.157	869.11926	-217.8564	109.9548	858.00427	118.52902	63.94798	466.89728	-84.15013	66.571	471.56595	-16.34682	57.42427	91.04361	-207.05513	55.89433	87.3009	108.48018	73.27631	98.66884	-121.37883	80.35483	92.81808	24.75163	-14.74477	59.83274	-159.35393	-15.882	62.94516	60.08476	168.28572	30.80888	-243.65074	165.7438	40.93144	157.65265	212.95833	65.01878	-176.10155	214.49883	65.28833	91.05478	61.63452	1297.28784	347.3855	91.83182	1312.00598	592.44781	58.18652	1246.94434	586.63989	55.56581	1300.28687	666.96173	43.07201	1301.43433	-436.13898	37.16862	1262.42737	-685.26825	69.35117	1324.12952	-679.55347	30.86136	1318.6875	-758.87299	177.43791	717.37421	117.11821	166.29195	719.0777	-218.18364	78.33563	485.25214	-209.51234	89.0871	478.94672	108.57805	55.31052	268.88611	125.46995	54.67816	182.66435	114.32382	108.33212	232.83388	64.66864	65.85007	278.95126	-225.75041	62.42929	193.9948	-216.79787	73.4185	1608.51624	-128.39815	178.02104	1625.95874	38.62933	187.01668	1634.74402	-109.10399	63.06731	1393.89941	-292.86151	25.94585	1306.63147	-584.39093	45.31252	1294.03662	431.47064
172	0.57	188.99968	1375.24634	-47.83897	88.22385	1424.72131	89.10884	86.92534	1433.33875	-192.35686	49.308	1429.40601	-46.74706	15.04044	1135.03418	-52.39168	179.79271	946.9646	60.54526	175.09163	953.37683	-166.7867	-0.90515	955.45825	-1.02924	-2.44709	954.36633	-99.10936	109.10301	869.0979	-217.85048	109.98296	857.91772	118.40642	63.90845	466.866	-84.1837	66.72928	471.52612	-16.43452	57.4156	91.02438	-207.04878	55.88145	87.27991	108.4745	73.24786	98.67056	-121.34914	80.50073	92.80869	24.8241	-14.7509	59.84484	-159.37746	-15.89855	62.90886	60.07474	168.25954	30.75972	-243.68242	165.75568	40.91603	157.64899	212.96275	65.00448	-176.0724	214.5273	65.24653	91.04332	61.6264	1297.26794	347.38434	91.81017	1311.96619	592.45233	58.18672	1246.90869	586.64349	55.5666	1300.24768	666.93103	43.06985	1301.39673	-436.14276	37.27911	1262.39392	-685.23743	69.3824	1324.09082	-679.54437	30.88213	1318.66418	-758.90912	177.4337	717.39685	117.1163	166.27165	719.07477	-218.23921	78.29189	485.2085	-209.51112	89.07619	478.92868	108.53346	55.31815	268.89783	125.46018	54.68129	182.64966	114.29851	108.33588	232.80544	64.65829	65.80641	278.95242	-225.72588	62.41379	193.95166	-216.77388	73.69525	1608.35449	-128.50609	178.04378	1625.95166	38.62502	187.02489	1634.69983	-109.09935	62.56635	1393.70288	-292.57141	25.9285	1306.60913	-584.38531	45.31747	1294.01306	431.44763
173	0.57333	189.00465	1375.22864	-47.84731	88.21143	1424.7251	89.07257	86.93478	1433.33765	-192.35677	49.30876	1429.4375	-46.76668	15.03167	1135.00964	-52.40086	179.77837	946.97229	60.49684	175.07338	953.32129	-166.83067	-0.92035	955.46954	-1.07471	-2.46386	954.41138	-99.15092	109.1078	869.07532	-217.8755	109.91	857.98273	118.43887	63.90727	466.83041	-84.19826	66.7121	471.48978	-16.43028	57.44267	91.01337	-207.04097	55.88051	87.30652	108.46095	73.3087	98.6384	-121.34044	80.55307	92.79851	24.82468	-14.74628	59.81211	-159.37315	-15.90952	62.90295	60.05357	168.48825	30.87582	-243.59084	165.76778	40.91413	157.63531	213.0106	64.98315	-176.10945	214.5432	65.25424	91.03238	61.62398	1297.2511	347.38028	91.84312	1311.91675	592.45142	58.18497	1246.86633	586.64325	55.55696	1300.22827	666.9281	43.07091	1301.38159	-436.14557	37.29768	1262.35681	-685.25269	69.40926	1324.05554	-679.54053	30.91213	1318.61829	-758.9068	177.39198	717.36304	117.09134	166.23959	719.02069	-218.27553	78.30417	485.20242	-209.51952	89.08881	478.93057	108.51332	55.31564	268.89038	125.44206	54.67619	182.63503	114.27594	108.31224	232.7916	64.65448	65.81003	278.8797	-225.77309	62.40877	193.90627	-216.77269	73.75914	1608.32129	-128.54305	178.1161	1625.93823	38.63348	187.00948	1634.69531	-109.06615	62.50562	1393.67358	-292.55383	25.97166	1306.60095	-584.4212	45.31396	1293.99231	431.41193
174	0.57667	189.01186	1375.23999	-47.85506	88.21225	1424.74304	89.06624	86.94322	1433.30664	-192.35844	49.30327	1429.46802	-46.81059	14.97205	1135.00732	-52.4052	179.70815	946.94824	60.52026	175.13017	953.24274	-166.81874	-0.95471	955.47852	-1.15182	-2.4431	954.42664	-99.23515	109.09743	869.03101	-217.93349	109.86948	857.95532	118.33516	63.9122	466.82852	-84.19835	65.591	471.53986	-15.86797	57.49174	90.95306	-207.05299	55.86961	87.28432	108.45845	73.32614	98.63382	-121.34258	80.54416	92.76654	24.82503	-14.76254	59.83533	-159.40312	-15.92667	62.93014	60.05899	168.29541	30.7138	-243.69237	165.7809	40.91376	157.61295	213.0229	65.01112	-176.09688	214.56166	65.2455	91.00478	61.62598	1297.21497	347.38293	91.85503	1311.86719	592.45172	58.18858	1246.85168	586.64142	55.55476	1300.21167	666.92413	43.07109	1301.38184	-436.14563	37.301	1262.33887	-685.26013	69.42613	1324.01917	-679.54065	30.91685	1318.59924	-758.90759	177.40358	717.37994	117.08273	166.20464	719.0061	-218.27113	78.27379	485.18433	-209.5352	89.09863	478.92026	108.48381	55.33289	268.90057	125.43762	54.67513	182.65298	114.25517	108.35295	232.78236	64.61887	65.80219	278.86575	-225.78169	62.39035	193.89764	-216.77327	73.70807	1608.33411	-128.53447	178.03539	1625.86462	38.66232	187.03398	1634.64258	-109.0294	63.05016	1393.8324	-292.81482	25.96169	1306.59436	-584.41602	45.31537	1293.99536	431.40604
175	0.58	189.00658	1375.23706	-47.86473	88.16547	1424.72876	89.0757	86.95811	1433.31055	-192.35069	49.29488	1429.46448	-46.80733	14.97498	1135.02173	-52.40834	179.70244	946.97516	60.50023	175.024	953.2793	-166.83696	-0.98721	955.51532	-1.09195	-2.51942	954.44977	-99.17476	109.09131	869.02112	-217.93593	109.82661	857.97668	118.3232	63.91058	466.83548	-84.22618	65.42845	471.51794	-15.80788	57.48228	90.92643	-207.05638	55.89363	87.32152	108.46744	73.33177	98.60154	-121.35713	80.55284	92.73418	24.82455	-14.77109	59.83457	-159.40807	-15.92234	62.93825	60.03889	168.51358	30.8314	-243.58806	165.78099	40.8955	157.60748	212.98497	64.98029	-176.13429	214.5616	65.24802	91.00697	61.60954	1297.21692	347.38885	91.88655	1311.8335	592.4472	58.19173	1246.82043	586.59723	55.58784	1300.18982	666.91174	43.04263	1301.37549	-436.1347	37.29989	1262.33911	-685.25989	69.44156	1323.9834	-679.53967	30.91743	1318.58301	-758.91003	177.39644	717.33832	117.02414	165.94591	718.92291	-218.37843	78.27827	485.17007	-209.58867	89.06609	478.94385	108.48312	55.34492	268.90668	125.42963	54.68936	182.67549	114.26656	108.31389	232.78464	64.63043	65.77994	278.82242	-225.77486	62.36934	193.87631	-216.77251	73.79715	1608.30847	-128.55736	178.00395	1625.85828	38.66612	187.00972	1634.61694	-109.01604	62.59833	1393.64136	-292.57245	26.00653	1306.56995	-584.39343	45.30553	1293.9812	431.41171
